<?xml version="1.0" standalone="no"?><!DOCTYPE svg PUBLIC "-//W3C//DTD SVG 1.1//EN" "http://www.w3.org/Graphics/SVG/1.1/DTD/svg11.dtd"><svg class="icon" width="200px" height="200.00px" viewBox="0 0 1024 1024" version="1.1" xmlns="http://www.w3.org/2000/svg"><path fill="#ffffff" d="M227.415014 61.943957C226.917809 62.441195 219.624947 63.93291 211.00615 65.258879 172.553056 71.059992 140.398347 87.137364 113.215954 113.988231 90.0115 137.192685 74.762859 164.872283 65.81257 200.341947 63.326379 210.120967 62.994887 238.463549 62.331902 501.999842 62.00041 713.989099 62.331902 797.193639 63.657871 808.63012 66.144062 828.353905 75.425844 856.862233 85.039117 873.436843 104.099918 906.917554 137.414884 935.591629 173.050294 949.348555 184.321029 953.8237 191.448111 955.481161 222.774123 961.282274 236.531049 963.768465 796.9186 962.276751 811.172764 959.790559 830.730803 956.144145 846.642429 951.171762 861.891069 943.713188 910.786168 920.177242 946.753071 873.934081 956.200598 822.718538 957.858059 814.431233 959.681266 805.149452 960.509997 802.000276 962.996188 792.88424 961.504473 225.535354 959.018282 211.944174 949.7365 161.557361 925.869063 123.104266 886.587238 95.093176 866.366214 80.673266 843.161761 71.059992 813.658956 64.927387 801.559491 62.275449 774.542877 61.943957 514.321539 61.612465 357.028461 61.280973 227.912252 61.446719 227.415014 61.943957ZM811.172764 133.380524C830.233565 137.855669 845.150714 146.474433 861.062339 162.220345 872.167327 173.159621 876.642472 179.126447 881.283363 188.73972 893.217082 213.270143 892.388351 189.568451 892.388351 511.447369 892.388351 718.298497 891.891113 804.320721 890.565144 810.619073 884.266792 840.121878 861.559577 868.795952 833.216995 882.552878 810.012541 893.823613 828.907596 893.326375 505.702709 892.829136L213.658121 892.331898 202.884592 888.685484C172.221531 878.24348 147.525396 853.878804 135.094438 822.221299L130.78504 811.116311 130.287802 516.254006C129.790563 189.071213 129.127579 213.270143 141.061314 188.73972 149.348603 171.50211 170.398357 150.618118 187.967443 141.999321 211.669135 130.231349 189.624904 131.060079 510.3436 130.894333 764.929603 130.728587 801.725237 131.060079 811.172764 133.380524Z"  /><path fill="#ffffff" d="M472.884982 423.1047C456.476119 427.414099 441.061699 440.342294 433.271665 456.419665 429.625251 463.546748 429.128013 467.027416 429.128013 482.11031 429.128013 497.690443 429.625251 500.508127 433.603157 508.629686 439.735763 521.060643 451.835228 532.994362 471.724826 546.088303 484.652955 554.541354 488.796607 558.187768 490.78556 562.828659 492.608768 567.303837 492.774514 569.789995 491.448545 572.607679 486.144703 584.209906 470.067365 584.375652 451.172244 573.104917 434.597634 562.994405 434.266142 563.49161 433.603157 593.657433L433.105952 617.690617 437.415318 621.171318C444.37672 626.640873 464.431931 630.121574 482.829682 629.292844 496.58674 628.629859 500.730326 627.635383 510.675092 623.160238 537.194467 610.895027 551.780174 584.209906 547.636471 555.370085 544.653042 534.320331 534.874022 521.226389 509.514869 504.486033 486.310416 489.237393 481.338033 482.607549 487.139146 474.320178 492.608768 466.530177 505.702709 467.856146 520.122619 477.303674 524.432018 480.287103 529.238655 482.11031 531.393354 481.778818 535.205514 481.28158 535.205514 480.950088 535.702753 456.253919 536.034245 436.530134 535.702753 430.729021 533.879545 429.237273 532.553577 428.242829 525.75792 425.922384 518.630905 424.099177 504.045248 420.287017 484.652955 419.955574 472.884982 423.1047Z"  /><path fill="#ffffff" d="M273.326683 428.077083L269.18303 432.386482 269.514522 527.027502C270.011761 619.348078 270.011761 621.668523 273.326683 623.988969 276.144366 626.143668 284.100179 626.47516 323.879242 625.977922 368.133449 625.314937 371.779864 625.149191 380.398661 621.668523 393.658348 616.364648 403.934606 606.751375 410.398704 593.491687 415.536833 583.215429 415.868325 581.226509 415.868325 565.812089 415.868325 551.889417 415.205341 548.077257 412.221911 542.441922 407.58102 533.657346 400.288192 526.530198 392.663872 522.88385L386.531266 519.90042 392.332379 515.922547C402.94013 508.795399 409.404227 488.740154 406.75229 470.342338 403.934606 451.115824 392.000887 436.032896 373.768817 428.740067 365.15002 425.425146 361.172113 425.093653 321.061558 424.430669L277.636081 423.767718 273.326683 428.077083ZM346.089219 472.828529C353.879285 477.800912 353.382047 493.381045 345.260488 498.353361 343.603027 499.5137 338.630644 500.839553 334.652738 501.502604L327.194164 502.497113 327.194164 468.353351 334.652738 469.182082C338.79639 469.679303 343.934519 471.336764 346.089219 472.828529ZM348.741156 547.580018C354.54227 550.563448 357.028461 554.707134 357.028461 561.50269 357.028461 573.602122 349.735633 579.900507 335.481469 579.900507L327.194164 579.900507 327.194164 545.093827 335.481469 545.093827C340.122359 545.093827 346.089219 546.254016 348.741156 547.580018Z"  /><path fill="#ffffff" d="M552.277296 425.922384C545.15028 430.066003 545.15028 430.231782 564.376893 527.193248 579.625402 604.762421 583.271882 621.005539 586.089566 623.325984 588.907183 625.812142 592.71941 626.309414 609.625511 626.309414 624.045422 626.309414 630.841078 625.64643 632.995761 623.988969 635.481902 622.165762 637.636602 612.220996 644.76375 570.618726 652.387971 524.707123 653.548227 520.231912 654.542654 527.690537 655.205688 532.165631 659.017848 555.370085 662.995754 579.071826 668.465309 612.05525 670.951501 622.663 673.106266 624.154715 674.929473 625.64643 682.553794 626.309414 696.14504 626.309414 712.885329 626.309414 716.863235 625.812142 719.680919 623.325984 722.664349 621.005539 726.145017 606.088324 741.559404 528.519217 751.50417 477.966658 759.791474 435.204165 759.791474 433.546704 759.791474 432.054989 758.299759 429.237273 756.476552 427.414099 753.493123 424.430669 751.006931 424.099177 734.266576 424.099177 708.244438 424.099177 709.404661 422.938987 704.100786 457.248396 701.946087 472.331291 698.796911 493.546791 697.305196 504.486033 695.813415 515.425276 694.15602 524.872737 693.493036 525.701467 692.995798 526.364518 690.675352 515.093817 688.686399 500.839553 681.062029 449.458363 677.581411 430.894734 674.432235 427.414099 671.78033 424.430669 669.29404 424.099177 653.713973 424.099177 639.128316 424.099177 635.316156 424.596448 632.498473 426.91686 629.183617 429.90029 627.526057 438.353341 616.586914 512.773338 615.426558 520.894897 613.93491 526.530198 613.437672 525.204295 612.940433 523.878393 609.791257 504.486033 606.642082 482.11031 603.32716 459.734587 600.177951 438.684833 599.680746 435.204165 598.189031 425.590892 594.542617 424.099177 573.327116 424.099177 563.382351 424.099177 553.769077 424.927907 552.277296 425.922384Z"  /></svg>