<?xml version="1.0" standalone="no"?><!DOCTYPE svg PUBLIC "-//W3C//DTD SVG 1.1//EN" "http://www.w3.org/Graphics/SVG/1.1/DTD/svg11.dtd"><svg class="icon" width="200px" height="200.00px" viewBox="61.487322 61.315594 900.5797070000001 901.5750049999999" version="1.1" xmlns="http://www.w3.org/2000/svg"><path fill="#ffffff" d="M253.745912 62.476776C252.418846 63.306192 246.447052 64.301491 240.475258 64.965023 214.099835 67.453271 181.918501 79.562742 155.543077 96.814591 108.764025 127.337094 76.748574 174.447879 64.970869 230.516423 62.316738 243.289426 62.150855 264.356572 62.150855 511.356622 62.150855 805.467475 61.487322 787.220327 72.269728 820.231077 92.341591 882.603147 144.097139 933.197513 207.630408 952.43996 241.968207 962.890599 229.195203 962.558833 510.864818 962.558833 750.565993 962.558833 768.315492 962.39295 784.406159 959.572936 863.698312 945.804633 925.075083 894.214969 949.459908 820.728726 961.735263 783.902663 961.07173 797.670966 961.735263 517.162533 962.067029 347.961704 961.735263 262.36599 960.574081 255.067131 959.578782 249.095337 958.085833 239.142347 957.090534 233.004637 949.957558 187.055033 921.25977 139.114798 881.613694 106.933464 864.693611 93.165161 835.166407 78.069793 811.445115 71.1027 780.093196 61.64736 790.709719 61.979126 512.52365 61.481477 371.522959 61.315594 255.072977 61.64736 253.745912 62.476776ZM782.581444 133.308888C825.047534 141.934812 861.044181 170.6326 879.788979 210.44456 892.561983 237.317632 891.566684 211.937508 892.064333 506.380127 892.396099 743.095405 892.230216 771.461426 889.907852 783.405014 879.623096 834.165263 842.299383 874.143106 790.377953 889.736123 780.922612 892.556137 765.827244 892.887903 516.670729 893.385553 279.623685 893.717319 251.58943 893.551436 239.645876 891.229072 193.696206 881.939614 154.879545 848.928864 138.457111 804.969825 129.001771 780.087351 129.333537 790.53799 129.333537 512.517804 129.333537 348.625237 129.99707 252.247117 130.992369 245.611774 139.95006 191.036229 183.909099 145.086592 238.982343 133.143004 247.774118 131.31829 294.55317 130.82064 509.703636 130.82064 740.944769 130.654757 771.135505 130.986523 782.581444 133.308888Z"  /><path fill="#ffffff" d="M306.828525 411.992606C289.079026 416.803218 274.64719 428.580889 267.182448 444.17394 263.533018 451.970449 262.869486 455.619878 262.869486 468.226999 262.869486 482.161185 263.201252 483.9859 268.509513 493.607123 271.661327 499.412968 277.135438 506.711894 280.784868 509.69779 284.434297 512.849504 299.197899 521.475495 313.795618 528.940238 328.393336 536.239097 341.829873 543.869723 343.488704 545.528554 348.299316 550.339166 347.4699 557.638025 341.498106 562.61452 337.351027 566.098067 334.696896 566.927483 327.398037 566.927483 317.942697 566.927483 313.795618 565.268651 296.212002 554.652128 290.737857 551.334465 284.102531 548.680334 281.4484 548.680334 274.813074 548.680334 265.855383 553.15918 262.205953 558.467441 254.741211 569.083964 256.400042 581.193435 267.016565 590.814592 292.064923 613.374769 324.743906 619.844246 355.764058 608.232391 368.039413 603.753612 383.134781 589.653476 389.272458 577.212305 393.419537 568.752197 393.917187 565.932117 393.917187 551.168532 393.917187 521.309612 386.452444 512.186038 343.156938 489.791811 313.961501 474.696443 309.482655 471.047079 311.30737 463.914037 312.468552 459.766891 320.099178 455.785762 326.734504 455.785762 329.554518 455.785762 336.853378 458.439959 343.156938 461.591672 357.42289 469.056415 364.389983 469.222298 372.186492 462.255238 375.504155 459.435191 378.821818 454.458696 379.817117 451.141033 386.950094 424.765643 344.484003 401.873733 306.828525 411.992606Z"  /><path fill="#ffffff" d="M434.558562 416.305568C420.956176 423.272661 421.287909 420.618464 421.287909 511.024856 421.287909 598.77705 421.122026 597.947635 431.904365 605.578194 436.715043 608.895957 439.037374 609.22769 466.905779 609.725373 502.902426 610.388872 515.343664 608.232391 535.581344 598.279401 560.132119 586.16993 579.374499 562.448637 586.341659 536.073214 589.659322 523.300276 589.659322 497.09067 586.175776 485.478782 578.379267 458.771659 559.634469 436.211548 535.581344 424.599726 516.504846 415.310269 502.073011 412.656139 469.062261 412.656139 444.179719 412.656139 441.193889 412.987905 434.558562 416.305568ZM510.367169 465.572868C527.453135 473.037611 539.396723 491.284759 539.562606 509.531907 539.728522 536.902563 521.481341 557.803909 493.944735 561.121572 488.802357 561.785105 481.503498 561.785105 477.854068 561.121572L471.052859 559.96039 471.052859 511.522572C471.052859 484.815316 471.550442 462.421088 472.379858 461.757556 474.868205 458.937475 501.575361 461.757556 510.367169 465.572868Z"  /><path fill="#ffffff" d="M632.623062 414.31497C625.15832 416.637335 617.030044 426.424441 617.030044 433.059768L617.030044 515.337851C617.030044 600.269999 616.864095 597.781751 627.480684 605.744143 631.959529 609.061807 634.116044 609.22769 674.757386 609.22769 715.398762 609.22769 717.887009 609.061807 726.8447 605.412443 755.708371 593.800555 771.799038 559.296857 761.348399 531.428485 759.026034 525.290808 754.878955 518.821365 749.90246 513.84487L742.271835 506.048361 747.580096 498.251852C762.011931 477.01884 758.860151 449.648118 739.94947 430.903287 724.522336 415.642036 718.218775 413.817321 674.259737 413.319671 653.856074 412.987905 635.443076 413.485554 632.623062 414.31497ZM703.621057 465.738752C709.426968 471.710546 709.095201 477.516456 702.293992 483.48825 698.644562 486.805914 696.322198 487.303563 682.388012 487.303563L666.794994 487.303563 666.794994 475.194092C666.794994 468.392882 667.292644 462.421088 667.956176 461.923439 668.453826 461.259906 675.586802 460.762257 683.715143 460.762257 697.981029 460.762257 698.810445 460.928206 703.621057 465.738752ZM710.422267 534.248499C718.882308 539.72271 717.555243 555.149778 708.265786 559.794507 705.611655 561.121572 697.151613 561.950988 685.539725 561.950988L666.794994 561.950988 666.794994 547.187386C666.794994 537.400279 667.458527 532.092018 668.785592 531.760252 669.780891 531.428485 678.738549 531.096719 688.359806 531.262602 702.128108 531.428485 707.270487 532.092018 710.422267 534.248499Z"  /></svg>